<mxfile host="app.diagrams.net" modified="2024-05-12T03:16:46.276Z" agent="Mozilla/5.0 (Windows NT 10.0; Win64; x64) AppleWebKit/537.36 (KHTML, like Gecko) Chrome/124.0.0.0 Safari/537.36 Edg/124.0.0.0" etag="7ShWHwEx74qu1u5Fu-jZ" version="24.4.0" type="github">
  <diagram name="PÃ¡gina-1" id="fU-9XxhqJOaWuqHO71o0">
    <mxGraphModel dx="830" dy="-200" grid="1" gridSize="10" guides="1" tooltips="1" connect="1" arrows="1" fold="1" page="1" pageScale="1" pageWidth="827" pageHeight="1169" math="0" shadow="0">
      <root>
        <mxCell id="0" />
        <mxCell id="1" parent="0" />
        <mxCell id="BXwMvegtBZVB2G4h1GQO-1" value="" style="edgeStyle=orthogonalEdgeStyle;rounded=0;orthogonalLoop=1;jettySize=auto;html=1;" edge="1" parent="1" source="BXwMvegtBZVB2G4h1GQO-2" target="BXwMvegtBZVB2G4h1GQO-4">
          <mxGeometry relative="1" as="geometry" />
        </mxCell>
        <mxCell id="BXwMvegtBZVB2G4h1GQO-2" value="INICIO 3" style="ellipse;whiteSpace=wrap;html=1;" vertex="1" parent="1">
          <mxGeometry x="280" y="1520" width="120" height="60" as="geometry" />
        </mxCell>
        <mxCell id="BXwMvegtBZVB2G4h1GQO-3" value="" style="edgeStyle=orthogonalEdgeStyle;rounded=0;orthogonalLoop=1;jettySize=auto;html=1;" edge="1" parent="1" source="BXwMvegtBZVB2G4h1GQO-4" target="BXwMvegtBZVB2G4h1GQO-7">
          <mxGeometry relative="1" as="geometry" />
        </mxCell>
        <mxCell id="BXwMvegtBZVB2G4h1GQO-4" value="a,b" style="whiteSpace=wrap;html=1;" vertex="1" parent="1">
          <mxGeometry x="287.5" y="1600" width="105" height="30" as="geometry" />
        </mxCell>
        <mxCell id="BXwMvegtBZVB2G4h1GQO-5" value="" style="edgeStyle=orthogonalEdgeStyle;rounded=0;orthogonalLoop=1;jettySize=auto;html=1;" edge="1" parent="1" source="BXwMvegtBZVB2G4h1GQO-7">
          <mxGeometry relative="1" as="geometry">
            <mxPoint x="420" y="1700" as="targetPoint" />
          </mxGeometry>
        </mxCell>
        <mxCell id="BXwMvegtBZVB2G4h1GQO-6" value="" style="edgeStyle=orthogonalEdgeStyle;rounded=0;orthogonalLoop=1;jettySize=auto;html=1;" edge="1" parent="1" source="BXwMvegtBZVB2G4h1GQO-7">
          <mxGeometry relative="1" as="geometry">
            <mxPoint x="340" y="1770" as="targetPoint" />
          </mxGeometry>
        </mxCell>
        <mxCell id="BXwMvegtBZVB2G4h1GQO-7" value="b==0" style="rhombus;whiteSpace=wrap;html=1;" vertex="1" parent="1">
          <mxGeometry x="300" y="1660" width="80" height="80" as="geometry" />
        </mxCell>
        <mxCell id="BXwMvegtBZVB2G4h1GQO-8" style="edgeStyle=orthogonalEdgeStyle;rounded=0;orthogonalLoop=1;jettySize=auto;html=1;" edge="1" parent="1" target="BXwMvegtBZVB2G4h1GQO-12">
          <mxGeometry relative="1" as="geometry">
            <mxPoint x="540" y="1700" as="sourcePoint" />
          </mxGeometry>
        </mxCell>
        <mxCell id="BXwMvegtBZVB2G4h1GQO-9" value="si" style="text;html=1;align=center;verticalAlign=middle;whiteSpace=wrap;rounded=0;" vertex="1" parent="1">
          <mxGeometry x="360" y="1670" width="60" height="30" as="geometry" />
        </mxCell>
        <mxCell id="BXwMvegtBZVB2G4h1GQO-10" style="edgeStyle=orthogonalEdgeStyle;rounded=0;orthogonalLoop=1;jettySize=auto;html=1;entryX=0;entryY=0.5;entryDx=0;entryDy=0;" edge="1" parent="1" target="BXwMvegtBZVB2G4h1GQO-12">
          <mxGeometry relative="1" as="geometry">
            <mxPoint x="400" y="1810" as="sourcePoint" />
          </mxGeometry>
        </mxCell>
        <mxCell id="BXwMvegtBZVB2G4h1GQO-11" value="no" style="text;html=1;align=center;verticalAlign=middle;whiteSpace=wrap;rounded=0;" vertex="1" parent="1">
          <mxGeometry x="337.5" y="1730" width="60" height="30" as="geometry" />
        </mxCell>
        <mxCell id="BXwMvegtBZVB2G4h1GQO-12" value="FIN" style="ellipse;whiteSpace=wrap;html=1;" vertex="1" parent="1">
          <mxGeometry x="550" y="1770" width="120" height="80" as="geometry" />
        </mxCell>
        <mxCell id="BXwMvegtBZVB2G4h1GQO-13" value="mostrar&lt;div&gt;&quot;Impossible&quot;&lt;/div&gt;" style="shape=parallelogram;perimeter=parallelogramPerimeter;whiteSpace=wrap;html=1;fixedSize=1;" vertex="1" parent="1">
          <mxGeometry x="414" y="1660" width="136" height="70" as="geometry" />
        </mxCell>
        <mxCell id="BXwMvegtBZVB2G4h1GQO-14" value="mostrar&amp;nbsp;&lt;div&gt;a/b&lt;/div&gt;" style="shape=parallelogram;perimeter=parallelogramPerimeter;whiteSpace=wrap;html=1;fixedSize=1;" vertex="1" parent="1">
          <mxGeometry x="252.5" y="1770" width="167.5" height="70" as="geometry" />
        </mxCell>
      </root>
    </mxGraphModel>
  </diagram>
</mxfile>
